# xmcd CD database file
#
# Track frame offsets:
#	150
#	10911
#	21102
#	31660
#	41872
#	53487
#	64182
#	74168
#	84196
#	95041
#	105994
#	116370
#	127793
#	135754
#	148841
#	158866
#	171232
#	183050
#	195002
#	208221
#	218380
#	231701
#	242066
#	254049
#	265956
#
# Disc length: 3698 seconds
#
# Revision: 1
# Processed by: cddbd v1.5.2PL0 Copyright (c) Steve Scherf et al.
# Submitted via: CDex 1.51
#
DISCID=570e7019
DTITLE=Various Artist - Seaside Special CD3
DYEAR=2014
DGENRE=Oldies
TTITLE0=The Shadows - Dance On
TTITLE1=Cliff Richard - Do You Wanna Dance
TTITLE2=Matt Monro - When Love Comes Along
TTITLE3=The Beverley Sisters - Together Wherever We Go
TTITLE4=Kathy Kirby - Danny
TTITLE5=Craig Douglas - Oh Lonesome Me
TTITLE6=Maureen Evans - Like I Do
TTITLE7=Frankie Howerd - It's All Right With Me
TTITLE8=Helen Shapiro - Keep Away From Other Girls
TTITLE9=Bernard Cribbins - My Resistance Is Low
TTITLE10=Max Bygraves - Fings Ain't Wot They Used To Be
TTITLE11=The Kaye Sisters - Alone
TTITLE12=Frank Ifield - Gotta Get a Date
TTITLE13=Lyn Cornell - Never On Sunday
TTITLE14=The Avons - Seven Little Girls Sitting In The Back Seat
TTITLE15=Chris Barber's Jazz Band - Petite Fleur
TTITLE16=Lonnie Donegan - Jimmy Brown The Newsboy
TTITLE17=Frankie Vaughan - Kewpie Doll
TTITLE18=Petula Clark - Majorca
TTITLE19=Pearl Carr and Teddy Johnson - How Wonderful To Know
TTITLE20=Mike Preston - Tribute To Buddy Holly
TTITLE21=Tommy Steele - Take a Ride
TTITLE22=Mrs Mills - Mrs Mills Medley
TTITLE23=Acker Bilk - The White Cliffs of Dover
TTITLE24=Harry Secombe - I'll Walk Beside You
EXTD=All tracks Mono YEAR: 2014
EXTT0=
EXTT1=
EXTT2=
EXTT3=
EXTT4=
EXTT5=
EXTT6=
EXTT7=
EXTT8=
EXTT9=
EXTT10=
EXTT11=
EXTT12=
EXTT13=
EXTT14=
EXTT15=
EXTT16=
EXTT17=
EXTT18=
EXTT19=
EXTT20=
EXTT21=
EXTT22=
EXTT23=
EXTT24=
PLAYORDER=
